<mxfile host="app.diagrams.net" modified="2021-10-19T02:13:24.679Z" agent="5.0 (Windows NT 10.0; Win64; x64) AppleWebKit/537.36 (KHTML, like Gecko) Chrome/94.0.4606.71 Safari/537.36" etag="1wINp6brPJRQ4qgvymPi" version="15.5.1" type="github">
  <diagram id="xZrHymxnGukgq33A_WIV" name="Page-1">
    <mxGraphModel dx="782" dy="706" grid="1" gridSize="10" guides="1" tooltips="1" connect="1" arrows="1" fold="1" page="1" pageScale="1" pageWidth="827" pageHeight="1169" math="0" shadow="0">
      <root>
        <mxCell id="0" />
        <mxCell id="1" parent="0" />
        <mxCell id="2FN_iwaDB6zX4IYejheY-1" value="&lt;font style=&quot;font-size: 18px&quot;&gt;&lt;b&gt;23&lt;/b&gt;&lt;/font&gt;" style="whiteSpace=wrap;html=1;aspect=fixed;fillColor=#d5e8d4;strokeColor=#82b366;" vertex="1" parent="1">
          <mxGeometry x="279" y="130" width="30" height="30" as="geometry" />
        </mxCell>
        <mxCell id="2FN_iwaDB6zX4IYejheY-2" value="&lt;font style=&quot;font-size: 18px&quot;&gt;&lt;b&gt;7&lt;/b&gt;&lt;/font&gt;" style="whiteSpace=wrap;html=1;aspect=fixed;fillColor=#d5e8d4;strokeColor=#82b366;" vertex="1" parent="1">
          <mxGeometry x="309" y="130" width="30" height="30" as="geometry" />
        </mxCell>
        <mxCell id="2FN_iwaDB6zX4IYejheY-3" value="&lt;font size=&quot;3&quot;&gt;&lt;b&gt;7&lt;/b&gt;&lt;/font&gt;" style="whiteSpace=wrap;html=1;aspect=fixed;fillColor=#fff2cc;strokeColor=#d6b656;" vertex="1" parent="1">
          <mxGeometry x="339" y="130" width="30" height="30" as="geometry" />
        </mxCell>
        <mxCell id="2FN_iwaDB6zX4IYejheY-4" value="&lt;b style=&quot;font-size: 18px&quot;&gt;10&lt;/b&gt;" style="whiteSpace=wrap;html=1;aspect=fixed;fillColor=#d5e8d4;strokeColor=#82b366;" vertex="1" parent="1">
          <mxGeometry x="279" y="160" width="30" height="30" as="geometry" />
        </mxCell>
        <mxCell id="2FN_iwaDB6zX4IYejheY-5" value="&lt;b style=&quot;font-size: 18px&quot;&gt;1&lt;/b&gt;" style="whiteSpace=wrap;html=1;aspect=fixed;fillColor=#d5e8d4;strokeColor=#82b366;" vertex="1" parent="1">
          <mxGeometry x="309" y="160" width="30" height="30" as="geometry" />
        </mxCell>
        <mxCell id="2FN_iwaDB6zX4IYejheY-6" value="&lt;b style=&quot;font-size: 18px&quot;&gt;9&lt;/b&gt;" style="whiteSpace=wrap;html=1;aspect=fixed;fillColor=#fff2cc;strokeColor=#d6b656;" vertex="1" parent="1">
          <mxGeometry x="339" y="160" width="30" height="30" as="geometry" />
        </mxCell>
        <mxCell id="2FN_iwaDB6zX4IYejheY-7" value="&lt;font face=&quot;helvetica&quot;&gt;&lt;span style=&quot;font-size: 18px&quot;&gt;&lt;b&gt;4&lt;/b&gt;&lt;/span&gt;&lt;/font&gt;" style="whiteSpace=wrap;html=1;aspect=fixed;fillColor=#b0e3e6;strokeColor=#0e8088;" vertex="1" parent="1">
          <mxGeometry x="279" y="190" width="30" height="30" as="geometry" />
        </mxCell>
        <mxCell id="2FN_iwaDB6zX4IYejheY-8" value="&lt;font style=&quot;font-size: 18px&quot;&gt;&lt;b&gt;4&lt;/b&gt;&lt;/font&gt;" style="whiteSpace=wrap;html=1;aspect=fixed;fillColor=#b0e3e6;strokeColor=#0e8088;" vertex="1" parent="1">
          <mxGeometry x="309" y="190" width="30" height="30" as="geometry" />
        </mxCell>
        <mxCell id="2FN_iwaDB6zX4IYejheY-9" value="&lt;font style=&quot;font-size: 18px&quot;&gt;&lt;b&gt;11&lt;/b&gt;&lt;/font&gt;" style="whiteSpace=wrap;html=1;aspect=fixed;fillColor=#fad9d5;strokeColor=#ae4132;" vertex="1" parent="1">
          <mxGeometry x="339" y="190" width="30" height="30" as="geometry" />
        </mxCell>
        <mxCell id="2FN_iwaDB6zX4IYejheY-13" value="&lt;b style=&quot;font-size: 18px&quot;&gt;2&lt;/b&gt;" style="whiteSpace=wrap;html=1;aspect=fixed;fillColor=#b0e3e6;strokeColor=#0e8088;" vertex="1" parent="1">
          <mxGeometry x="279" y="220" width="30" height="30" as="geometry" />
        </mxCell>
        <mxCell id="2FN_iwaDB6zX4IYejheY-14" value="&lt;b style=&quot;font-size: 18px&quot;&gt;5&lt;/b&gt;" style="whiteSpace=wrap;html=1;aspect=fixed;fillColor=#b0e3e6;strokeColor=#0e8088;" vertex="1" parent="1">
          <mxGeometry x="309" y="220" width="30" height="30" as="geometry" />
        </mxCell>
        <mxCell id="2FN_iwaDB6zX4IYejheY-15" value="&lt;font style=&quot;font-size: 18px&quot;&gt;&lt;b&gt;12&lt;/b&gt;&lt;/font&gt;" style="whiteSpace=wrap;html=1;aspect=fixed;fillColor=#fad9d5;strokeColor=#ae4132;" vertex="1" parent="1">
          <mxGeometry x="339" y="220" width="30" height="30" as="geometry" />
        </mxCell>
        <mxCell id="2FN_iwaDB6zX4IYejheY-16" value="&lt;font face=&quot;helvetica&quot;&gt;&lt;span style=&quot;font-size: 18px&quot;&gt;&lt;b&gt;23&lt;/b&gt;&lt;/span&gt;&lt;/font&gt;" style="whiteSpace=wrap;html=1;aspect=fixed;fillColor=#d5e8d4;strokeColor=#82b366;" vertex="1" parent="1">
          <mxGeometry x="490" y="100" width="30" height="30" as="geometry" />
        </mxCell>
        <mxCell id="2FN_iwaDB6zX4IYejheY-17" value="&lt;font face=&quot;helvetica&quot;&gt;&lt;span style=&quot;font-size: 18px&quot;&gt;&lt;b&gt;9&lt;/b&gt;&lt;/span&gt;&lt;/font&gt;" style="whiteSpace=wrap;html=1;aspect=fixed;fillColor=#fff2cc;strokeColor=#d6b656;" vertex="1" parent="1">
          <mxGeometry x="520" y="100" width="30" height="30" as="geometry" />
        </mxCell>
        <mxCell id="2FN_iwaDB6zX4IYejheY-18" value="&lt;font face=&quot;helvetica&quot;&gt;&lt;span style=&quot;font-size: 18px&quot;&gt;&lt;b&gt;10&lt;/b&gt;&lt;/span&gt;&lt;/font&gt;" style="whiteSpace=wrap;html=1;aspect=fixed;fillColor=#d5e8d4;strokeColor=#82b366;" vertex="1" parent="1">
          <mxGeometry x="490" y="220" width="30" height="30" as="geometry" />
        </mxCell>
        <mxCell id="2FN_iwaDB6zX4IYejheY-19" value="&lt;font face=&quot;helvetica&quot;&gt;&lt;span style=&quot;font-size: 18px&quot;&gt;&lt;b&gt;5&lt;/b&gt;&lt;/span&gt;&lt;/font&gt;" style="whiteSpace=wrap;html=1;aspect=fixed;fillColor=#b0e3e6;strokeColor=#0e8088;" vertex="1" parent="1">
          <mxGeometry x="490" y="130" width="30" height="30" as="geometry" />
        </mxCell>
        <mxCell id="2FN_iwaDB6zX4IYejheY-20" value="&lt;font face=&quot;helvetica&quot;&gt;&lt;span style=&quot;font-size: 18px&quot;&gt;&lt;b&gt;12&lt;/b&gt;&lt;/span&gt;&lt;/font&gt;" style="whiteSpace=wrap;html=1;aspect=fixed;fillColor=#fad9d5;strokeColor=#ae4132;" vertex="1" parent="1">
          <mxGeometry x="520" y="130" width="30" height="30" as="geometry" />
        </mxCell>
        <mxCell id="2FN_iwaDB6zX4IYejheY-21" value="&lt;font face=&quot;helvetica&quot;&gt;&lt;span style=&quot;font-size: 18px&quot;&gt;&lt;b&gt;4&lt;/b&gt;&lt;/span&gt;&lt;/font&gt;" style="whiteSpace=wrap;html=1;aspect=fixed;fillColor=#b0e3e6;strokeColor=#0e8088;" vertex="1" parent="1">
          <mxGeometry x="490" y="250" width="30" height="30" as="geometry" />
        </mxCell>
        <mxCell id="2FN_iwaDB6zX4IYejheY-22" value="&lt;font style=&quot;font-size: 18px&quot;&gt;&lt;b&gt;8&lt;/b&gt;&lt;/font&gt;" style="whiteSpace=wrap;html=1;aspect=fixed;fillColor=#fff2cc;strokeColor=#d6b656;" vertex="1" parent="1">
          <mxGeometry x="369" y="130" width="30" height="30" as="geometry" />
        </mxCell>
        <mxCell id="2FN_iwaDB6zX4IYejheY-25" value="&lt;font face=&quot;helvetica&quot;&gt;&lt;span style=&quot;font-size: 18px&quot;&gt;&lt;b&gt;0&lt;/b&gt;&lt;/span&gt;&lt;/font&gt;" style="whiteSpace=wrap;html=1;aspect=fixed;fillColor=#fff2cc;strokeColor=#d6b656;" vertex="1" parent="1">
          <mxGeometry x="369" y="160" width="30" height="30" as="geometry" />
        </mxCell>
        <mxCell id="2FN_iwaDB6zX4IYejheY-28" value="&lt;font face=&quot;helvetica&quot;&gt;&lt;span style=&quot;font-size: 18px&quot;&gt;&lt;b&gt;6&lt;/b&gt;&lt;/span&gt;&lt;/font&gt;" style="whiteSpace=wrap;html=1;aspect=fixed;fillColor=#fad9d5;strokeColor=#ae4132;" vertex="1" parent="1">
          <mxGeometry x="369" y="190" width="30" height="30" as="geometry" />
        </mxCell>
        <mxCell id="2FN_iwaDB6zX4IYejheY-31" value="&lt;b style=&quot;font-size: 18px&quot;&gt;7&lt;/b&gt;" style="whiteSpace=wrap;html=1;aspect=fixed;fillColor=#fad9d5;strokeColor=#ae4132;" vertex="1" parent="1">
          <mxGeometry x="369" y="220" width="30" height="30" as="geometry" />
        </mxCell>
        <mxCell id="2FN_iwaDB6zX4IYejheY-34" value="&lt;font face=&quot;helvetica&quot;&gt;&lt;span style=&quot;font-size: 18px&quot;&gt;&lt;b&gt;6&lt;/b&gt;&lt;/span&gt;&lt;/font&gt;" style="whiteSpace=wrap;html=1;aspect=fixed;fillColor=#fff2cc;strokeColor=#d6b656;" vertex="1" parent="1">
          <mxGeometry x="520" y="220" width="30" height="30" as="geometry" />
        </mxCell>
        <mxCell id="2FN_iwaDB6zX4IYejheY-37" value="&lt;font face=&quot;helvetica&quot;&gt;&lt;span style=&quot;font-size: 18px&quot;&gt;&lt;b&gt;9&lt;/b&gt;&lt;/span&gt;&lt;/font&gt;" style="whiteSpace=wrap;html=1;aspect=fixed;fillColor=#fad9d5;strokeColor=#ae4132;" vertex="1" parent="1">
          <mxGeometry x="520" y="250" width="30" height="30" as="geometry" />
        </mxCell>
        <mxCell id="2FN_iwaDB6zX4IYejheY-40" value="" style="endArrow=none;html=1;rounded=0;exitX=1;exitY=0;exitDx=0;exitDy=0;entryX=0;entryY=0;entryDx=0;entryDy=0;" edge="1" parent="1" source="2FN_iwaDB6zX4IYejheY-28" target="2FN_iwaDB6zX4IYejheY-19">
          <mxGeometry width="50" height="50" relative="1" as="geometry">
            <mxPoint x="380" y="390" as="sourcePoint" />
            <mxPoint x="430" y="340" as="targetPoint" />
          </mxGeometry>
        </mxCell>
        <mxCell id="2FN_iwaDB6zX4IYejheY-41" value="" style="endArrow=none;html=1;rounded=0;exitX=1;exitY=0;exitDx=0;exitDy=0;entryX=0;entryY=0;entryDx=0;entryDy=0;" edge="1" parent="1" source="2FN_iwaDB6zX4IYejheY-28" target="2FN_iwaDB6zX4IYejheY-21">
          <mxGeometry width="50" height="50" relative="1" as="geometry">
            <mxPoint x="380" y="390" as="sourcePoint" />
            <mxPoint x="430" y="340" as="targetPoint" />
          </mxGeometry>
        </mxCell>
        <mxCell id="2FN_iwaDB6zX4IYejheY-42" value="&lt;font style=&quot;font-size: 14px&quot;&gt;&lt;b&gt;平均池化&lt;/b&gt;&lt;/font&gt;" style="text;html=1;strokeColor=none;fillColor=none;align=center;verticalAlign=middle;whiteSpace=wrap;rounded=0;fontSize=18;" vertex="1" parent="1">
          <mxGeometry x="470" y="290" width="100" height="30" as="geometry" />
        </mxCell>
        <mxCell id="2FN_iwaDB6zX4IYejheY-43" value="&lt;font style=&quot;font-size: 14px&quot;&gt;&lt;b&gt;最大池化&lt;/b&gt;&lt;/font&gt;" style="text;html=1;strokeColor=none;fillColor=none;align=center;verticalAlign=middle;whiteSpace=wrap;rounded=0;fontSize=18;" vertex="1" parent="1">
          <mxGeometry x="465" y="160" width="110" height="30" as="geometry" />
        </mxCell>
        <mxCell id="2FN_iwaDB6zX4IYejheY-44" value="&lt;b&gt;2 x 2 pooling&lt;/b&gt;" style="text;html=1;strokeColor=none;fillColor=none;align=center;verticalAlign=middle;whiteSpace=wrap;rounded=0;fontSize=14;" vertex="1" parent="1">
          <mxGeometry x="264" y="260" width="150" height="30" as="geometry" />
        </mxCell>
      </root>
    </mxGraphModel>
  </diagram>
</mxfile>
